{
    "asset" : {
        "generator" : "Khronos glTF Blender I/O v1.8.19",
        "version" : "2.0"
    },
    "scene" : 0,
    "scenes" : [
        {
            "name" : "Scene",
            "nodes" : [
                1,
                4            ]
        }
    ],
    "nodes" : [
        {
            "mesh" : 0,
            "name" : "Sol"
        },
        {
            "mesh" : 1,
            "name" : "Image",
            "scale" : [
                1.309999942779541,
                1,
                1
            ],
            "translation" : [
                0,
                0.019999999552965164,
                0
            ]
        },
        {
            "camera" : 0,
            "name" : "Camera_Orientation",
            "translation" : [
                -0,
                42,
                -0
            ],
            "rotation" : [
				-0.7071067811865475, 
				0.0, 
				0.0, 
				0.7071067811865475
            ]
        },
        {
            "mesh" : 2,
            "name" : "CubeChild",
            
            "translation" : [
                0.6519393920898438,
                -0.34244251251220703,
                4.0363736152648926
            ]
        },
        {
            "children" : [
                3
            ],
            "mesh" : 3,
            "name" : "Cone",
            "translation" : [
                0,
                0,
                0
            ],
			"extensions": {	
				"MPEG_anchor": {
					"anchor": 0
				}
			}
        },
		{
            "mesh" : 4,
            "name" : "ImageJPG",
            "translation" : [
                1,
                2,
                1
            ]
        }
    ],
    "cameras" : [
        {
            "name" : "Camera",
            "perspective" : {
                "aspectRatio" : 1.7777777777777777,
                "yfov" : 0.39959652046304894,
                "zfar" : 1000,
                "znear" : 0.10000000149011612
            },
            "type" : "perspective"
        }
    ],
    "materials" : [
        {
            "doubleSided" : true,
            "name" : "Material.001",
            "pbrMetallicRoughness" : {
                "baseColorFactor" : [
                    0.800000011920929,
                    0.800000011920929,
                    0.800000011920929,
                    1
                ],
                "metallicFactor" : 0,
                "roughnessFactor" : 0.4000000059604645
            }
        },
        {
            "doubleSided" : true,
            "name" : "image",
            "pbrMetallicRoughness" : {
                "baseColorTexture" : {
                    "index" : 0
                },
                "metallicFactor" : 0,
                "roughnessFactor" : 0.5
            }
        },
        {
            "doubleSided" : true,
            "name" : "RedMat.001",
            "pbrMetallicRoughness" : {
                "baseColorFactor" : [
                    0,
                    0.006376294884830713,
                    1,
                    1
                ],
                "metallicFactor" : 0,
                "roughnessFactor" : 0.5
            }
        },
        {
            "doubleSided" : true,
            "name" : "RedMat",
            "pbrMetallicRoughness" : {
                "baseColorFactor" : [
                    1,
                    0,
                    0,
                    1
                ],
                "metallicFactor" : 0,
                "roughnessFactor" : 0.5
            }
        },
        {
            "doubleSided" : true,
            "name" : "imageJPG",
            "pbrMetallicRoughness" : {
                "baseColorTexture" : {
                    "index" : 1
                },
                "metallicFactor" : 0,
                "roughnessFactor" : 0.5
            }
        }
    ],
    "meshes" : [
        {
            "name" : "Cube.001",
            "primitives" : [
                {
                    "attributes" : {
                        "POSITION" : 0,
                        "NORMAL" : 1,
                        "TEXCOORD_0" : 2
                    },
                    "indices" : 3,
                    "material" : 0
                }
            ]
        },
        {
            "name" : "Cube.002",
            "primitives" : [
                {
                    "attributes" : {
                        "POSITION" : 4,
                        "NORMAL" : 5,
                        "TEXCOORD_0" : 6
                    },
                    "indices" : 7,
                    "material" : 1
                }
            ]
        },
        {
            "name" : "Cube.003",
            "primitives" : [
                {
                    "attributes" : {
                        "POSITION" : 8,
                        "NORMAL" : 9,
                        "TEXCOORD_0" : 10
                    },
                    "indices" : 11,
                    "material" : 2
                }
            ]
        },
        {
            "name" : "Cone",
            "primitives" : [
                {
                    "attributes" : {
                        "POSITION" : 12,
                        "NORMAL" : 13,
                        "TEXCOORD_0" : 14
                    },
                    "indices" : 15,
                    "material" : 3
                }
            ]
        },
        {
            "name" : "Cube.004",
            "primitives" : [
                {
                    "attributes" : {
                        "POSITION" : 4,
                        "NORMAL" : 5,
                        "TEXCOORD_0" : 6
                    },
                    "indices" : 7,
                    "material" : 4
                }
            ]
        }
    ],
    "textures" : [
        {
            "sampler" : 0,
            "source" : 0
        },
		{
            "sampler" : 1,
            "source" : 1
        }
    ],
    "images" : [
        {
            "bufferView" : 8,
            "mimeType" : "image/jpeg",
            "name" : "metro_box"
        },
		{
			"uri": "textures/metro_box.jpg"
		}
    ],
    "accessors" : [
        {
            "bufferView" : 0,
            "componentType" : 5126,
            "count" : 24,
            "max" : [
                5,
                0.02900000289082527,
                5
            ],
            "min" : [
                -5,
                -0.02900000289082527,
                -5
            ],
            "type" : "VEC3"
        },
        {
            "bufferView" : 1,
            "componentType" : 5126,
            "count" : 24,
            "type" : "VEC3"
        },
        {
            "bufferView" : 2,
            "componentType" : 5126,
            "count" : 24,
            "type" : "VEC2"
        },
        {
            "bufferView" : 3,
            "componentType" : 5123,
            "count" : 36,
            "type" : "SCALAR"
        },
        {
            "bufferView" : 4,
            "componentType" : 5126,
            "count" : 4,
            "max" : [
                2.3593599796295166,
                0.02722454071044922,
                2.3593599796295166
            ],
            "min" : [
                -2.3593599796295166,
                0.02722454071044922,
                -2.3593599796295166
            ],
            "type" : "VEC3"
        },
        {
            "bufferView" : 5,
            "componentType" : 5126,
            "count" : 4,
            "type" : "VEC3"
        },
        {
            "bufferView" : 6,
            "componentType" : 5126,
            "count" : 4,
            "type" : "VEC2"
        },
        {
            "bufferView" : 7,
            "componentType" : 5123,
            "count" : 6,
            "type" : "SCALAR"
        },
        {
            "bufferView" : 9,
            "componentType" : 5126,
            "count" : 24,
            "max" : [
                0.5536575317382812,
                0.5536575317382812,
                0.5536575317382812
            ],
            "min" : [
                -0.5536575317382812,
                -0.5536575317382812,
                -0.5536575317382812
            ],
            "type" : "VEC3"
        },
        {
            "bufferView" : 10,
            "componentType" : 5126,
            "count" : 24,
            "type" : "VEC3"
        },
        {
            "bufferView" : 11,
            "componentType" : 5126,
            "count" : 24,
            "type" : "VEC2"
        },
        {
            "bufferView" : 12,
            "componentType" : 5123,
            "count" : 36,
            "type" : "SCALAR"
        },
        {
            "bufferView" : 13,
            "componentType" : 5126,
            "count" : 128,
            "max" : [
                0.29288482666015625,
                0.8961000442504883,
                0.29288482666015625
            ],
            "min" : [
                -0.29288482666015625,
                -0.8961000442504883,
                -0.29288482666015625
            ],
            "type" : "VEC3"
        },
        {
            "bufferView" : 14,
            "componentType" : 5126,
            "count" : 128,
            "type" : "VEC3"
        },
        {
            "bufferView" : 15,
            "componentType" : 5126,
            "count" : 128,
            "type" : "VEC2"
        },
        {
            "bufferView" : 16,
            "componentType" : 5123,
            "count" : 186,
            "type" : "SCALAR"
        }
    ],
    "bufferViews" : [
        {
            "buffer" : 0,
            "byteLength" : 288,
            "byteOffset" : 0
        },
        {
            "buffer" : 0,
            "byteLength" : 288,
            "byteOffset" : 288
        },
        {
            "buffer" : 0,
            "byteLength" : 192,
            "byteOffset" : 576
        },
        {
            "buffer" : 0,
            "byteLength" : 72,
            "byteOffset" : 768
        },
        {
            "buffer" : 0,
            "byteLength" : 48,
            "byteOffset" : 840
        },
        {
            "buffer" : 0,
            "byteLength" : 48,
            "byteOffset" : 888
        },
        {
            "buffer" : 0,
            "byteLength" : 32,
            "byteOffset" : 936
        },
        {
            "buffer" : 0,
            "byteLength" : 12,
            "byteOffset" : 968
        },
        {
            "buffer" : 0,
            "byteLength" : 39109,
            "byteOffset" : 980
        },
        {
            "buffer" : 0,
            "byteLength" : 288,
            "byteOffset" : 40092
        },
        {
            "buffer" : 0,
            "byteLength" : 288,
            "byteOffset" : 40380
        },
        {
            "buffer" : 0,
            "byteLength" : 192,
            "byteOffset" : 40668
        },
        {
            "buffer" : 0,
            "byteLength" : 72,
            "byteOffset" : 40860
        },
        {
            "buffer" : 0,
            "byteLength" : 1536,
            "byteOffset" : 40932
        },
        {
            "buffer" : 0,
            "byteLength" : 1536,
            "byteOffset" : 42468
        },
        {
            "buffer" : 0,
            "byteLength" : 1024,
            "byteOffset" : 44004
        },
        {
            "buffer" : 0,
            "byteLength" : 372,
            "byteOffset" : 45028
        }
    ],
    "samplers" : [
        {
            "magFilter" : 9729,
            "minFilter" : 9987
        },
		{
			"magFilter": 9729,
			"minFilter": 9987,
			"wrapS": 10497,
			"wrapT": 10497
		}
    ],
    "buffers" : [
        {
            "byteLength" : 45400,
            "uri" : "data:application/octet-stream;base64,"
        }
    ],
	"extensions": {	
		"MPEG_anchor": {
			"anchors": [
				{                    
					"trackable": 0,
					"requiresAnchoring":true
				}
			],
			"trackables": [
				{                    
					"type": 4,
					"markerNode":5
				}
			]
		}
	},
    "extensionsUsed": [
		"MPEG_anchor",
        "MPEG_media", 
        "MPEG_accessor_timed", 
        "MPEG_buffer_circular", 
        "MPEG_texture_video", 
        "KHR_materials_unlit",
        "MPEG_audio_spatial"
    ]
}
